<?xml version="1.0" standalone="no"?>
<!DOCTYPE svg PUBLIC "-//W3C//DTD SVG 20010904//EN"
 "http://www.w3.org/TR/2001/REC-SVG-20010904/DTD/svg10.dtd">
<svg version="1.0" xmlns="http://www.w3.org/2000/svg"
 width="500.000000pt" height="500.000000pt" viewBox="0 0 500.000000 500.000000"
 preserveAspectRatio="xMidYMid meet">

<g transform="translate(0.000000,500.000000) scale(0.100000,-0.100000)"
fill="#000000" stroke="none">
<path d="M3374 3886 c-6 -17 27 -96 41 -96 13 1 83 39 72 40 -5 0 -17 -5 -28
-10 -21 -12 -26 -1 -8 17 8 8 2 16 -20 29 -17 10 -31 22 -31 26 0 13 -20 9
-26 -6z"/>
<path d="M2630 3880 c0 -5 7 -10 16 -10 8 0 12 5 9 10 -3 6 -10 10 -16 10 -5
0 -9 -4 -9 -10z"/>
<path d="M3486 3799 c3 -5 -5 -9 -18 -9 -30 0 -54 -15 -39 -24 6 -4 11 -2 11
3 0 6 5 11 11 11 5 0 7 -4 4 -10 -3 -5 -2 -10 4 -10 5 0 13 5 16 11 4 6 16 14
28 18 20 8 20 8 -1 13 -12 4 -20 2 -16 -3z"/>
<path d="M3530 3780 c0 -5 4 -10 9 -10 5 0 17 -7 26 -16 9 -9 19 -14 22 -10 6
6 -36 45 -49 46 -5 0 -8 -4 -8 -10z"/>
<path d="M3533 3723 c-7 -3 -13 -13 -13 -23 0 -10 -5 -20 -11 -22 -13 -4 7
-48 50 -108 14 -21 32 -46 38 -56 7 -11 24 -36 38 -57 14 -21 25 -46 25 -56 0
-26 26 -46 33 -27 4 10 1 13 -9 9 -10 -4 -12 0 -8 11 8 20 24 20 60 1 36 -19
42 -5 13 29 -28 32 -33 56 -11 56 15 0 15 2 2 10 -8 5 -10 10 -4 10 6 0 10 10
10 21 -1 18 9 28 43 46 7 4 -73 83 -84 83 -7 0 -15 8 -17 18 -3 10 -12 19 -21
19 -13 0 -11 -6 8 -25 14 -13 22 -28 19 -33 -3 -5 1 -12 10 -15 8 -3 17 -13
20 -21 5 -13 4 -14 -9 -3 -11 9 -15 9 -15 1 0 -7 -5 -9 -12 -5 -8 5 -9 2 -5
-9 8 -21 -6 -22 -23 -2 -10 12 -9 16 4 21 22 9 20 21 -5 29 -17 6 -19 9 -8 16
12 7 12 12 1 29 -7 11 -10 25 -7 30 3 5 1 11 -5 15 -5 3 -10 2 -10 -3 0 -6
-11 -13 -25 -16 -14 -4 -23 -11 -20 -16 12 -20 -16 -19 -36 1 -17 17 -19 23
-8 30 16 9 10 18 -8 12z m23 -64 c3 -6 17 -8 33 -4 29 7 27 4 -5 -13 -18 -9
-25 -8 -39 8 -10 11 -13 20 -7 20 6 0 14 -5 18 -11z m147 -151 c-4 -7 -16 -14
-26 -14 -14 -2 -15 1 -6 12 6 8 15 11 20 8 5 -3 9 0 9 7 0 7 3 10 6 6 3 -3 2
-11 -3 -19z m7 -37 c0 -5 -9 -7 -20 -4 -11 3 -20 7 -20 9 0 2 9 4 20 4 11 0
20 -4 20 -9z"/>
<path d="M3804 3528 c-4 -6 0 -16 9 -23 9 -7 14 -15 10 -18 -3 -4 -12 -2 -19
4 -16 13 -34 3 -33 -19 0 -11 2 -13 6 -4 3 9 9 10 17 3 13 -11 24 -6 45 22 11
14 11 20 1 32 -15 18 -26 19 -36 3z"/>
<path d="M1855 3430 c3 -5 8 -10 11 -10 2 0 4 5 4 10 0 6 -5 10 -11 10 -5 0
-7 -4 -4 -10z"/>
<path d="M1843 3400 c1 -11 5 -20 9 -20 11 0 10 28 -1 35 -6 3 -9 -4 -8 -15z"/>
<path d="M3722 3333 c4 -21 17 -33 38 -33 13 0 13 1 0 10 -12 8 -12 10 -1 10
11 0 11 3 1 15 -17 21 -42 19 -38 -2z"/>
<path d="M3772 3280 c-14 -23 -16 -60 -3 -60 6 0 13 5 17 11 4 8 9 7 15 -2 7
-11 9 -10 9 4 0 11 5 17 13 14 6 -2 11 -10 9 -16 -2 -9 3 -9 19 -1 11 7 23 9
27 6 3 -3 0 -6 -6 -6 -6 0 -19 -14 -27 -31 -14 -25 -14 -33 -3 -47 10 -12 10
-14 1 -8 -8 4 -13 1 -13 -8 0 -9 -4 -16 -10 -16 -5 0 -7 -6 -4 -14 9 -23 42
-16 37 9 -4 18 -3 18 7 2 6 -9 16 -15 21 -11 6 3 5 12 -3 21 -12 15 -11 15 9
2 19 -11 24 -11 35 0 8 8 8 11 2 8 -16 -9 -22 12 -14 43 6 24 40 42 40 21 0
-6 5 -11 11 -11 5 0 7 5 3 12 -4 7 -3 8 4 4 17 -10 2 -36 -22 -36 -18 -1 -17
-3 9 -17 17 -9 32 -16 35 -15 3 0 8 -8 12 -19 6 -15 12 -18 25 -11 12 7 24 5
39 -5 16 -10 24 -11 29 -2 4 6 1 15 -6 20 -12 7 -12 9 1 9 10 0 11 3 2 12 -6
6 -24 11 -41 10 -28 -1 -41 15 -45 55 -1 7 -7 18 -15 25 -10 10 -12 10 -7 1
12 -22 -11 -14 -35 12 -28 29 -41 32 -32 8 5 -14 1 -13 -19 5 -13 12 -32 22
-41 22 -9 0 -17 3 -17 8 0 17 -56 10 -68 -8z m78 -20 c0 -5 -2 -10 -4 -10 -3
0 -8 5 -11 10 -3 6 -1 10 4 10 6 0 11 -4 11 -10z"/>
<path d="M3948 3293 c7 -3 16 -2 19 1 4 3 -2 6 -13 5 -11 0 -14 -3 -6 -6z"/>
<path d="M2356 3282 c-3 -5 1 -9 9 -9 8 0 12 4 9 9 -3 4 -7 8 -9 8 -2 0 -6 -4
-9 -8z"/>
<path d="M3895 3100 c3 -5 11 -10 16 -10 6 0 7 5 4 10 -3 6 -11 10 -16 10 -6
0 -7 -4 -4 -10z"/>
<path d="M3870 3036 c0 -8 5 -18 10 -21 6 -3 10 1 10 9 0 8 -4 18 -10 21 -5 3
-10 -1 -10 -9z"/>
<path d="M567 2129 c7 -7 15 -10 18 -7 3 3 -2 9 -12 12 -14 6 -15 5 -6 -5z"/>
<path d="M1606 1147 c3 -10 9 -15 12 -12 3 3 0 11 -7 18 -10 9 -11 8 -5 -6z"/>
</g>
</svg>
